<svg xmlns="http://www.w3.org/2000/svg" width="280" height="280" viewBox="0 0 280 280" role="img" aria-label="可爱白猫蝴蝶结背景">
  <rect width="280" height="280" fill="#fff7fb"/>
  <g opacity="0.78">
    <g transform="translate(34 30)">
      <path d="M22 42 12 14l27 15M88 42 98 14 71 29" fill="#fffdf8" stroke="#4a343b" stroke-width="5" stroke-linejoin="round"/>
      <path d="M18 48c0-22 16-36 37-36s37 14 37 36v18c0 20-16 32-37 32S18 86 18 66Z" fill="#fffdf8" stroke="#4a343b" stroke-width="5"/>
      <path d="M76 20c-6-8-16-7-21 1 5 7 15 9 21-1Zm0 0c5-9 15-10 22-3-2 9-14 13-22 3Z" fill="#ff4779" stroke="#4a343b" stroke-width="4" stroke-linejoin="round"/>
      <circle cx="43" cy="58" r="3.5" fill="#2d2429"/>
      <circle cx="68" cy="58" r="3.5" fill="#2d2429"/>
      <ellipse cx="55.5" cy="68" rx="4" ry="3" fill="#ffd263" stroke="#4a343b" stroke-width="3"/>
      <path d="M28 65H2m28 10L7 83m76-18h26M81 75l23 8" stroke="#4a343b" stroke-width="3.8" stroke-linecap="round"/>
    </g>
    <g transform="translate(190 152) scale(.72)">
      <path d="M22 42 12 14l27 15M88 42 98 14 71 29" fill="#fffdf8" stroke="#4a343b" stroke-width="5" stroke-linejoin="round"/>
      <path d="M18 48c0-22 16-36 37-36s37 14 37 36v18c0 20-16 32-37 32S18 86 18 66Z" fill="#fffdf8" stroke="#4a343b" stroke-width="5"/>
      <path d="M76 20c-6-8-16-7-21 1 5 7 15 9 21-1Zm0 0c5-9 15-10 22-3-2 9-14 13-22 3Z" fill="#ff8fb0" stroke="#4a343b" stroke-width="4" stroke-linejoin="round"/>
      <circle cx="43" cy="58" r="3.5" fill="#2d2429"/>
      <circle cx="68" cy="58" r="3.5" fill="#2d2429"/>
      <ellipse cx="55.5" cy="68" rx="4" ry="3" fill="#ffd263" stroke="#4a343b" stroke-width="3"/>
    </g>
  </g>
  <g fill="none" stroke-linecap="round" stroke-linejoin="round" opacity="0.7">
    <path d="M196 48c8-12 24-7 24 7 0 17-24 28-24 28s-24-11-24-28c0-14 16-19 24-7Z" fill="#ffe1eb" stroke="#ff8fb0" stroke-width="4"/>
    <path d="M64 204c-7-9-18-8-23 1 5 9 16 11 23-1Zm0 0c7-11 19-12 27-3-3 11-17 15-27 3Z" fill="#ff4779" stroke="#4a343b" stroke-width="4"/>
    <path d="M143 226c6-9 18-5 18 5 0 12-18 21-18 21s-18-9-18-21c0-10 12-14 18-5Z" fill="#e5fff8" stroke="#61cdb7" stroke-width="4"/>
    <path d="M238 98c-7-9-18-8-23 1 5 9 16 11 23-1Zm0 0c7-11 19-12 27-3-3 11-17 15-27 3Z" fill="#ffd263" stroke="#4a343b" stroke-width="4"/>
  </g>
</svg>
